<svg width="232" height="67" viewBox="0 0 232 67" fill="none" xmlns="http://www.w3.org/2000/svg">
<path d="M63.0308 30.7934V33.5082C63.0272 39.8715 60.9667 46.0632 57.1566 51.1598C53.3466 56.2564 47.9911 59.9848 41.8889 61.789C35.7867 63.5933 29.2648 63.3766 23.2958 61.1714C17.3268 58.9661 12.2306 54.8905 8.76713 49.5522C5.30371 44.214 3.65868 37.8992 4.07736 31.5497C4.49605 25.2002 6.95603 19.1561 11.0904 14.3188C15.2248 9.48162 20.8121 6.11044 27.019 4.70807C33.2258 3.30571 39.7197 3.94731 45.5322 6.53719" stroke="white" stroke-width="6.45337" stroke-linecap="round" stroke-linejoin="round"/>
<path d="M63.0309 9.90118L33.5222 39.4394L24.6696 30.5868" stroke="white" stroke-width="6.45337" stroke-linecap="round" stroke-linejoin="round"/>
<path d="M88.9123 50.1312L102.741 19.1061H109.832L123.705 50.1312H116.17L104.824 22.7405H107.66L96.2697 50.1312H88.9123ZM95.8265 43.483L97.7323 38.0314H113.688L115.638 43.483H95.8265ZM140.309 50.4858C138.299 50.4858 136.541 50.0426 135.034 49.1562C133.527 48.2697 132.346 46.9253 131.489 45.1229C130.661 43.2909 130.248 40.9862 130.248 38.2087C130.248 35.4017 130.647 33.097 131.444 31.2946C132.242 29.4921 133.395 28.1477 134.901 27.2613C136.408 26.3749 138.211 25.9316 140.309 25.9316C142.554 25.9316 144.564 26.4487 146.336 27.4829C148.139 28.4875 149.557 29.9058 150.591 31.7378C151.655 33.5697 152.187 35.7267 152.187 38.2087C152.187 40.7203 151.655 42.892 150.591 44.724C149.557 46.556 148.139 47.9742 146.336 48.9789C144.564 49.9835 142.554 50.4858 140.309 50.4858ZM126.214 58.7296V26.2862H132.818V31.1616L132.685 38.253L133.129 45.3002V58.7296H126.214ZM139.112 44.8126C140.264 44.8126 141.284 44.5467 142.17 44.0148C143.086 43.483 143.81 42.7295 144.342 41.7544C144.903 40.7498 145.184 39.5679 145.184 38.2087C145.184 36.82 144.903 35.6381 144.342 34.663C143.81 33.6879 143.086 32.9345 142.17 32.4026C141.284 31.8707 140.264 31.6048 139.112 31.6048C137.96 31.6048 136.925 31.8707 136.01 32.4026C135.094 32.9345 134.37 33.6879 133.838 34.663C133.306 35.6381 133.04 36.82 133.04 38.2087C133.04 39.5679 133.306 40.7498 133.838 41.7544C134.37 42.7295 135.094 43.483 136.01 44.0148C136.925 44.5467 137.96 44.8126 139.112 44.8126ZM166.655 50.4858C164.675 50.4858 162.902 50.1017 161.336 49.3334C159.8 48.5652 158.603 47.3981 157.746 45.832C156.889 44.2365 156.461 42.2124 156.461 39.76V26.2862H163.375V38.7406C163.375 40.7203 163.789 42.1829 164.616 43.1284C165.473 44.0444 166.67 44.5024 168.206 44.5024C169.27 44.5024 170.215 44.2808 171.043 43.8376C171.87 43.3648 172.52 42.6557 172.993 41.7101C173.465 40.7351 173.702 39.5236 173.702 38.0758V26.2862H180.616V50.1312H174.056V43.5716L175.253 45.4775C174.455 47.1321 173.273 48.3879 171.707 49.2448C170.171 50.0721 168.487 50.4858 166.655 50.4858ZM186.8 50.1312V26.2862H193.404V33.0231L192.473 31.073C193.182 29.3887 194.32 28.1182 195.886 27.2613C197.452 26.3749 199.358 25.9316 201.603 25.9316V32.314C201.308 32.2844 201.042 32.2696 200.806 32.2696C200.569 32.2401 200.318 32.2253 200.052 32.2253C198.161 32.2253 196.625 32.7719 195.443 33.8652C194.29 34.9289 193.714 36.5984 193.714 38.8735V50.1312H186.8ZM216.666 50.4858C214.125 50.4858 211.865 49.9539 209.885 48.8902C207.935 47.8265 206.383 46.3787 205.231 44.5467C204.108 42.6852 203.547 40.5725 203.547 38.2087C203.547 35.8154 204.108 33.7027 205.231 31.8707C206.383 30.0092 207.935 28.5614 209.885 27.5272C211.865 26.4635 214.125 25.9316 216.666 25.9316C219.178 25.9316 221.423 26.4635 223.403 27.5272C225.383 28.5614 226.934 29.9945 228.057 31.8264C229.18 33.6584 229.741 35.7858 229.741 38.2087C229.741 40.5725 229.18 42.6852 228.057 44.5467C226.934 46.3787 225.383 47.8265 223.403 48.8902C221.423 49.9539 219.178 50.4858 216.666 50.4858ZM216.666 44.8126C217.818 44.8126 218.853 44.5467 219.769 44.0148C220.685 43.483 221.409 42.7295 221.94 41.7544C222.472 40.7498 222.738 39.5679 222.738 38.2087C222.738 36.82 222.472 35.6381 221.94 34.663C221.409 33.6879 220.685 32.9345 219.769 32.4026C218.853 31.8707 217.818 31.6048 216.666 31.6048C215.514 31.6048 214.48 31.8707 213.564 32.4026C212.648 32.9345 211.909 33.6879 211.348 34.663C210.816 35.6381 210.55 36.82 210.55 38.2087C210.55 39.5679 210.816 40.7498 211.348 41.7544C211.909 42.7295 212.648 43.483 213.564 44.0148C214.48 44.5467 215.514 44.8126 216.666 44.8126Z" fill="white"/>
</svg>
